<?xml version="1.0" standalone="no"?>
<!DOCTYPE svg PUBLIC "-//W3C//DTD SVG 20010904//EN"
 "http://www.w3.org/TR/2001/REC-SVG-20010904/DTD/svg10.dtd">
<svg version="1.0" xmlns="http://www.w3.org/2000/svg"
 width="157.000000pt" height="66.000000pt" viewBox="0 0 157.000000 66.000000"
 preserveAspectRatio="xMidYMid meet">
<g transform="translate(0.000000,66.000000) scale(0.100000,-0.100000)"
fill="#f05053" stroke="none">
<path d="M273 638 c-34 -20 -43 -38 -20 -38 7 0 23 7 35 16 21 14 26 13 77
-11 30 -14 89 -31 131 -38 l77 -12 -5 -140 c-5 -147 -22 -215 -52 -215 -19 0
-19 -1 -1 43 11 26 15 73 15 160 l0 124 -62 13 c-35 6 -83 20 -107 31 l-44 19
-61 -24 c-34 -13 -82 -27 -108 -30 l-48 -7 0 -118 c0 -135 14 -188 64 -247 37
-44 109 -84 150 -84 15 0 43 7 63 15 44 18 43 18 43 -1 0 -8 -16 -22 -35 -30
-80 -33 -165 -6 -239 77 -64 71 -76 116 -76 281 l0 138 24 0 c31 0 56 10 56
21 0 11 -81 12 -98 0 -11 -6 -13 -41 -10 -162 3 -141 5 -159 29 -209 34 -73
76 -120 136 -153 72 -39 120 -44 178 -18 47 21 47 21 72 1 37 -29 79 -26 114
9 35 36 38 77 8 115 -21 27 -21 29 -5 78 12 37 16 88 16 193 0 157 1 155 -65
155 -40 0 -153 34 -180 54 -25 19 -33 19 -72 -6z m92 -97 c28 -10 71 -22 98
-26 l47 -7 0 -97 c0 -100 -11 -158 -38 -199 -15 -23 -16 -23 -23 -6 -14 35
-10 121 6 134 9 7 15 29 15 55 0 32 -6 48 -26 69 -34 34 -46 33 -78 -5 -30
-35 -36 -99 -11 -119 16 -14 19 -55 9 -162 -7 -71 -21 -85 -70 -72 -19 5 -22
16 -28 111 -5 93 -4 109 11 126 13 13 18 36 18 75 0 69 -18 85 -25 22 -6 -56
-24 -59 -28 -5 -4 53 -22 71 -22 23 0 -20 -3 -44 -6 -52 -11 -29 -34 3 -34 46
0 24 -4 37 -10 33 -16 -10 -12 -118 5 -143 12 -16 15 -41 13 -94 l-3 -73 -19
28 c-34 50 -45 100 -46 204 l0 101 48 7 c26 4 67 15 92 25 25 10 47 18 50 19
3 1 28 -8 55 -18z m69 -103 c21 -29 20 -58 -1 -88 -13 -19 -16 -42 -14 -110 2
-71 0 -89 -14 -100 -16 -13 -17 -7 -14 85 3 83 1 104 -14 125 -9 13 -17 34
-17 45 0 26 27 65 45 65 8 0 21 -10 29 -22z m-174 -79 c0 -4 -4 -11 -10 -14
-6 -3 -10 -52 -10 -112 0 -96 -2 -104 -16 -92 -13 11 -15 27 -9 96 6 68 4 88
-9 108 -14 22 -14 24 2 27 22 5 52 -2 52 -13z m273 -190 c29 -16 37 -28 37
-61 0 -39 -26 -60 -69 -56 -79 7 -73 111 7 127 2 1 13 -4 25 -10z"/>
<path d="M520 125 c-7 -9 -21 -13 -31 -10 -23 8 -25 -8 -4 -25 13 -11 20 -9
40 10 14 13 25 27 25 32 0 13 -17 9 -30 -7z"/>
<path d="M190 590 c0 -5 5 -10 10 -10 6 0 10 5 10 10 0 6 -4 10 -10 10 -5 0
-10 -4 -10 -10z"/>
<path d="M762 357 c-46 -26 -57 -55 -60 -169 l-4 -108 41 0 41 0 0 40 c0 33 3
40 20 40 17 0 20 7 20 40 0 33 -3 40 -20 40 -11 0 -20 7 -20 15 0 8 9 20 20
27 14 9 20 24 20 50 0 42 -15 48 -58 25z"/>
<path d="M1458 268 c-3 -102 -3 -103 -28 -103 -33 0 -36 38 -2 43 19 3 22 10
22 44 l0 41 -37 -6 c-69 -11 -109 -82 -79 -143 33 -71 130 -83 180 -23 24 29
26 37 26 140 l0 109 -40 0 -39 0 -3 -102z"/>
<path d="M904 281 c-41 -18 -66 -62 -61 -105 8 -60 45 -91 108 -91 45 0 54 4
80 33 39 43 39 90 2 132 -30 34 -89 48 -129 31z m71 -96 c0 -22 -31 -33 -47
-17 -17 17 -1 44 24 40 15 -2 23 -10 23 -23z"/>
<path d="M1144 281 c-41 -18 -66 -62 -61 -105 8 -60 45 -91 108 -91 45 0 54 4
80 33 39 43 39 90 2 132 -30 34 -89 48 -129 31z m71 -96 c0 -22 -31 -33 -47
-17 -17 17 -1 44 24 40 15 -2 23 -10 23 -23z"/>
</g>
</svg>
